<?xml version="1.0" encoding="UTF-8"?>
<svg id="svg8" xmlns="http://www.w3.org/2000/svg" viewBox="0 0 640.26 100.52">
  <defs>
    <style>
      .cls-1 {
        fill: #487cff;
      }
    </style>
  </defs>
  <g id="layer1">
    <g id="text884">
      <path id="path886" class="cls-1" d="M535.88,80c-.37-.38-.85-.7-1.44-.96-.59-.26-1.28-.38-2.08-.38-.99,0-1.79,.21-2.39,.62-.61,.4-.91,.94-.91,1.63,0,.73,.58,1.3,1.75,1.7l3.61,1.24c1.24,.41,2.16,.95,2.75,1.6s.88,1.46,.88,2.42c0,1.28-.34,2.38-1.03,3.3-.69,.91-1.62,1.6-2.8,2.08-1.18,.48-2.51,.72-3.99,.72-1.67,0-3.09-.28-4.26-.84-1.16-.57-2.03-1.38-2.61-2.42-.06-.11-.1-.22-.1-.33s.06-.21,.19-.29l1.89-1.15c.11-.08,.23-.12,.36-.12,.19,0,.37,.1,.53,.31,.41,.51,.79,.91,1.12,1.2,.35,.27,.77,.48,1.27,.62,.51,.14,1.16,.22,1.96,.22,1,0,1.82-.18,2.44-.55,.62-.38,.93-.97,.93-1.77,0-.4-.14-.73-.43-.98-.29-.27-.75-.52-1.39-.74l-3.49-1.17c-1.15-.38-2.03-.94-2.63-1.67-.59-.75-.88-1.6-.88-2.56,0-1.18,.33-2.22,1-3.13,.67-.91,1.56-1.61,2.68-2.1,1.13-.49,2.37-.74,3.71-.74s2.58,.25,3.61,.74c1.05,.48,1.87,1.1,2.44,1.87,.13,.16,.19,.28,.19,.36s-.06,.15-.17,.22l-2.13,1.41s-.05,.02-.1,.02c-.1,0-.26-.12-.5-.36h0Z"/>
      <path id="path888" class="cls-1" d="M545.53,93.97c-1.13,0-2.14-.23-3.01-.69-.88-.46-1.55-1.11-2.03-1.94-.48-.85-.72-1.82-.72-2.92,0-1.31,.31-2.54,.93-3.71,.64-1.18,1.51-2.12,2.61-2.82,1.12-.72,2.36-1.08,3.73-1.08,1.67,0,3.01,.49,3.99,1.48s1.48,2.35,1.48,4.09c0,.46-.03,.91-.1,1.34-.03,.13-.09,.22-.17,.29-.06,.05-.19,.07-.38,.07h-8.06c-.26,0-.38,.34-.38,1.03,0,.75,.24,1.33,.72,1.75,.49,.4,1.13,.6,1.91,.6,.61,0,1.17-.13,1.7-.38,.53-.26,1.04-.65,1.55-1.2,.08-.08,.16-.12,.24-.12,.05,0,.15,.03,.31,.1l1.58,.74c.19,.06,.29,.17,.29,.31,0,.08-.04,.18-.12,.31-.92,1.04-1.85,1.75-2.77,2.15-.91,.4-2.01,.6-3.3,.6h0Zm3.04-7.8c.38,0,.57-.31,.57-.93s-.18-1.12-.55-1.53c-.37-.43-.88-.65-1.53-.65-.8,0-1.51,.3-2.13,.91-.61,.59-.96,1.32-1.05,2.2h4.69Z"/>
      <path id="path890" class="cls-1" d="M560.79,92.56c-.96,.94-2.26,1.41-3.92,1.41-1.12,0-1.99-.29-2.63-.86-.64-.57-.96-1.32-.96-2.25,0-1.13,.37-2.06,1.12-2.77,.75-.73,1.69-1.26,2.82-1.58,1.15-.33,2.34-.52,3.56-.55l.86-.07c.3,0,.48-.15,.53-.45l.07-.5c.02-.08,.02-.21,.02-.38,0-.96-.55-1.44-1.65-1.44-1.26,0-2.19,.49-2.8,1.48-.08,.11-.18,.17-.31,.17-.1,0-.17,0-.22-.02l-2.32-.55c-.16-.03-.24-.14-.24-.31,0-.16,.04-.32,.12-.48,1.05-1.72,3.04-2.58,5.96-2.58,1.72,0,2.98,.3,3.78,.91,.81,.61,1.22,1.44,1.22,2.51,0,.14-.02,.37-.05,.69l-1.2,8.37c-.02,.21-.05,.33-.1,.38-.05,.03-.16,.05-.33,.05h-2.46c-.16,0-.26-.05-.31-.14-.05-.1-.08-.26-.1-.48l.02-.62c0-.13-.04-.19-.12-.19s-.21,.09-.38,.26h0Zm1.03-4.59v-.14c0-.06-.02-.1-.05-.12-.03-.03-.1-.04-.19-.02l-.86,.07c-.92,.06-1.79,.29-2.58,.69s-1.2,1.01-1.2,1.84c0,.38,.14,.69,.41,.93,.29,.22,.67,.33,1.15,.33,.41,0,.81-.06,1.17-.17,.37-.13,.69-.29,.96-.5,.59-.45,.92-.9,.98-1.36l.22-1.55Z"/>
      <path id="path892" class="cls-1" d="M567.6,93.73c-.19,0-.33-.06-.43-.17-.08-.11-.1-.26-.07-.43l1.65-11.74c.02-.14,.04-.23,.07-.26,.05-.05,.14-.07,.26-.07h2.85c.29,0,.4,.17,.33,.5l-.17,1.08v.1c0,.11,.03,.17,.1,.17,.05,0,.12-.05,.22-.14,.56-.59,1.18-1.06,1.87-1.41,.69-.35,1.31-.53,1.87-.53,.33,0,.58,.02,.74,.07s.23,.14,.22,.29l-.38,2.68c-.02,.18-.05,.29-.1,.33-.03,.05-.1,.06-.19,.05-.54-.08-1.08-.12-1.63-.12-.41,0-.85,.11-1.32,.33-.46,.21-.86,.49-1.2,.84-.32,.33-.5,.67-.55,1l-.98,6.98c-.03,.21-.09,.33-.17,.38-.06,.05-.22,.07-.45,.07h-2.54Z"/>
      <path id="path894" class="cls-1" d="M592.37,92.89c.14,.26,.22,.45,.22,.57,0,.1-.04,.17-.12,.22-.08,.03-.2,.05-.36,.05h-3.32c-.19,0-.34-.02-.45-.07-.1-.05-.18-.14-.24-.29l-2.65-5.52c-.08-.16-.16-.24-.24-.24-.05,0-.14,.09-.26,.26l-4.26,5.57c-.08,.13-.18,.21-.29,.24-.1,.03-.26,.05-.5,.05h-2.8c-.32,0-.48-.1-.48-.31,0-.14,.12-.38,.36-.72l6.12-7.68c.18-.19,.26-.36,.26-.5,0-.11-.02-.2-.05-.26l-3.99-7.8c-.05-.08-.07-.16-.07-.24,0-.16,.12-.24,.36-.24h3.49c.21,0,.35,.02,.43,.07,.08,.05,.16,.15,.24,.31l2.32,4.88c.05,.13,.1,.19,.17,.19s.14-.06,.24-.19l3.78-4.97c.1-.13,.18-.21,.26-.24,.1-.03,.25-.05,.45-.05h3.09c.19,0,.29,.09,.29,.26,0,.13-.05,.27-.14,.43l-5.93,7.37c-.16,.21-.24,.35-.24,.43,0,.06,.02,.14,.07,.24l4.26,8.18Z"/>
      <path id="path896" class="cls-1" d="M611.97,75.98c.11,0,.18,.03,.22,.1,.03,.05,.04,.14,.02,.26l-2.42,17.12c-.02,.11-.06,.18-.12,.22-.05,.03-.14,.05-.26,.05h-2.44c-.21,0-.39-.13-.55-.38l-6.17-10.69c-.05-.08-.1-.12-.14-.12-.1,0-.15,.09-.17,.26l-1.48,10.55c-.03,.16-.08,.26-.14,.31-.05,.05-.16,.07-.33,.07h-2.63c-.26,0-.37-.18-.33-.53l2.39-16.86c.03-.16,.06-.26,.1-.29,.05-.05,.15-.07,.31-.07h2.89c.16,0,.28,.04,.36,.12,.1,.06,.18,.18,.26,.33l5.64,9.97c.08,.13,.16,.19,.24,.19,.13,0,.2-.1,.22-.29l1.39-10.02c.02-.13,.05-.21,.1-.24,.06-.05,.17-.07,.31-.07h2.75Z"/>
      <path id="path898" class="cls-1" d="M620.6,93.97c-1.44,0-2.68-.3-3.73-.91s-1.86-1.46-2.42-2.56c-.54-1.12-.81-2.42-.81-3.92,0-1.98,.39-3.79,1.17-5.43,.78-1.66,1.89-2.97,3.32-3.95,1.44-.97,3.09-1.46,4.95-1.46,1.28,0,2.4,.25,3.37,.74,.99,.49,1.75,1.15,2.3,1.96,.54,.8,.83,1.65,.86,2.56,0,.16-.02,.28-.05,.36-.02,.06-.06,.1-.12,.12l-3.28,.48h-.02c-.06,0-.12-.04-.17-.12-.03-.08-.07-.24-.12-.48-.11-.8-.41-1.44-.91-1.94-.48-.49-1.16-.74-2.03-.74-1.13,0-2.07,.41-2.82,1.24-.73,.83-1.28,1.9-1.63,3.2-.35,1.29-.53,2.64-.53,4.04s.26,2.36,.77,2.97c.53,.59,1.29,.88,2.3,.88s1.79-.27,2.46-.81c.67-.54,1.16-1.2,1.48-1.99l.14-.67c.05-.08,.07-.14,.07-.17,0-.1-.1-.14-.29-.14h-2.94c-.1,0-.16-.02-.19-.05-.03-.05-.04-.14-.02-.26l.22-1.96c.02-.18,.1-.26,.24-.26l6.84,.02c.19,0,.31,.03,.36,.1,.06,.05,.08,.15,.05,.31l-1.17,8.28c-.02,.21-.14,.31-.38,.31h-.72c-.14,0-.26-.02-.33-.07-.06-.05-.12-.14-.17-.29l-.41-1.75c-.02-.08-.07-.12-.17-.12s-.2,.06-.31,.19c-.53,.65-1.21,1.2-2.06,1.63s-1.88,.65-3.11,.65h0Z"/>
    </g>
  </g>
  <g>
    <path d="M4.35,50.4c-.02-.91,.29-1.65,.93-2.22,.64-.57,1.42-.86,2.35-.86,1.06,0,1.99,.61,2.79,1.82,1.1,1.65,2.09,2.76,2.96,3.35,1.84,1.21,4.51,1.82,8.02,1.82s6.47-.73,9.35-2.18c3.68-1.86,5.52-4.45,5.52-7.76,0-2.73-1.55-4.88-4.64-6.46-2.62-1.36-5.86-2.1-9.71-2.21-3.42-.13-6.33-.88-8.74-2.24-3.07-1.75-4.61-4.27-4.61-7.53,0-3.85,2.19-7.37,6.56-10.56,4.18-3.01,8.5-4.51,12.96-4.51,2.1,0,4.47,.36,7.11,1.07,3.51,.93,5.26,2.12,5.26,3.57,0,1.91-.97,2.86-2.92,2.86-.87,0-2.38-.23-4.55-.7-2.17-.47-3.84-.69-5.03-.67-3.38,.04-6.25,.88-8.61,2.5-2.43,1.67-3.64,3.69-3.64,6.07,0,1.8,1.6,3.06,4.81,3.8,1.19,.28,3.5,.54,6.92,.78,4.96,.37,8.83,1.93,11.63,4.68,2.55,2.51,3.83,5.58,3.83,9.19,0,5.15-2.38,9.27-7.14,12.34-4.14,2.66-8.93,4-14.39,4-3.96,0-7.59-.76-10.88-2.27-4.03-1.86-6.07-4.42-6.14-7.67Z"/>
    <path d="M72.36,30.82c-.45,0-.99-.02-1.61-.06-.62-.04-1.15-.06-1.61-.06-.5,0-1.97,.16-4.42,.49l.62,19.19,.03,1.43,.03,1.66c.09,4.74-1.05,7.11-3.41,7.11-.87,0-1.62-.28-2.26-.84-.64-.56-.96-1.27-.96-2.11s.03-2.06,.1-3.7,.1-2.88,.1-3.7l-.65-18.97c-1.58-.06-3.98-.25-7.21-.55-1.93-.26-2.89-1.33-2.89-3.22,0-.95,.29-1.74,.88-2.37,.58-.63,1.33-.94,2.24-.94l6.82,.55c0-1.1-.05-2.58-.15-4.43-.1-1.85-.15-3.19-.15-4.01,0-.91,.31-1.66,.94-2.26,.63-.6,1.4-.89,2.31-.89,1.95,0,3.09,1.59,3.41,4.77,.06,.8,.1,1.77,.1,2.89l-.06,1.88-.03,2.01c2.68-.35,4.22-.52,4.61-.52,2.25,0,3.72,.11,4.42,.32,1.32,.43,1.98,1.45,1.98,3.05,0,.95-.3,1.74-.89,2.35-.6,.62-1.36,.93-2.29,.93Z"/>
    <path d="M107.24,34.49c-.15,2.71-1.23,4.06-3.25,4.06-1.86,0-2.79-1.07-2.79-3.22,0-.41-.03-1.17-.1-2.27l-.1-2.73c-3.42,.41-6.16,1.38-8.22,2.89-1.93,1.41-3.53,3.53-4.81,6.37l.06,17.8c0,2.19-1.07,3.28-3.21,3.28-1.91,0-2.86-1.09-2.86-3.28v-22.8c0-.71,.03-1.79,.08-3.22,.05-1.43,.08-2.5,.08-3.22,0-2.19,.95-3.28,2.86-3.28,2.12,0,3.19,1.8,3.22,5.39,4.16-4.01,8.77-6.01,13.84-6.01,1.75,0,3.06,.66,3.93,1.98,.87,1.32,1.3,3.31,1.3,5.98,0,1.13-.01,1.88-.03,2.27Z"/>
    <path d="M139.3,60.64c-.41,0-1.16-.48-2.24-1.43-.97-.89-1.7-1.68-2.18-2.37-2.08,1.13-3.91,1.98-5.49,2.55-1.58,.57-2.9,.86-3.96,.86-5.07,0-8.76-1.43-11.07-4.29-2.19-2.68-3.28-6.8-3.28-12.34,0-5.24,1.8-9.72,5.41-13.45,3.6-3.72,7.91-5.59,12.91-5.59,1.88,0,3.99,.49,6.33,1.46,2.94,1.21,4.42,2.67,4.42,4.38,0,.58-.22,1.1-.65,1.56-.22,.82-.38,2.18-.5,4.06-.12,1.88-.19,4.3-.21,7.24-.02,2.68,.16,4.81,.55,6.37,.22,.95,.9,2.86,2.05,5.72,.15,.39,.4,.96,.75,1.72l.19,.55c0,.87-.3,1.58-.91,2.14-.61,.56-1.31,.84-2.11,.84Zm-6.76-22.57c0-.93,.06-1.94,.18-3.04,.12-1.09,.3-2.26,.54-3.49-.8-.41-1.49-.71-2.06-.91s-1.03-.29-1.38-.29c-3.36,0-6.25,1.37-8.69,4.11-2.44,2.74-3.65,5.89-3.65,9.47s.63,6.21,1.88,7.99c1.26,1.78,3.14,2.66,5.65,2.66,2.08,0,3.84-.38,5.29-1.14,.78-.41,1.87-1.23,3.28-2.47-.69-5.74-1.04-10.04-1.04-12.89Z"/>
    <path d="M172.88,60.8c-1.86,0-2.91-1.02-3.15-3.05l-.91-7.11c-.3-2.53-.45-4.9-.45-7.11,0-.61,.04-1.63,.11-3.09,.08-1.45,.11-2.48,.11-3.08,0-4.68-.87-7.02-2.6-7.02-2.42,0-4.74,1.44-6.95,4.32-1.99,2.62-3.55,5.93-4.68,9.94-.04,.84-.14,1.91-.29,3.18-.13,1.08-.19,2.13-.19,3.15,0,.65,.06,1.62,.19,2.92,.13,1.3,.19,2.27,.19,2.92,0,.97-.3,1.76-.89,2.37-.6,.61-1.36,.91-2.29,.91s-1.72-.3-2.31-.91-.88-1.4-.88-2.37c0-.65-.07-1.62-.21-2.92-.14-1.3-.21-2.27-.21-2.92,0-2.23,.16-5.32,.47-9.27,.31-3.95,.47-7.04,.47-9.27,0-.69-.04-1.72-.11-3.09-.08-1.36-.11-2.39-.11-3.09,0-.93,.31-1.69,.93-2.29,.62-.6,1.38-.89,2.29-.89,1.99,0,3.09,1.41,3.28,4.22l.1,3.8c3.64-4.85,7.37-7.27,11.2-7.27,3.46,0,5.88,1.53,7.24,4.58,.93,2.04,1.44,5.05,1.53,9.03v3.28l-.03,3.02c0,1.8,.23,4.12,.7,6.97,.47,2.85,.7,5.16,.7,6.93,0,.95-.31,1.73-.93,2.32-.62,.59-1.39,.89-2.32,.89Z"/>
    <path d="M209.51,44.49l-.75,10.91c-.13,4.33-.57,7.87-1.33,10.62-.97,3.51-2.53,6.09-4.68,7.76-2.6,2.01-6.35,3.02-11.27,3.02-2.88,0-5.29-.2-7.24-.58-2.73-.54-4.09-1.67-4.09-3.38,0-1.93,.94-2.89,2.83-2.89,.78,0,2.08,.19,3.9,.57,1.82,.38,3.83,.55,6.04,.5,4.16-.06,7.03-2.08,8.61-6.04,1.04-2.64,1.59-6.7,1.66-12.18-1.17,2.17-2.56,3.79-4.17,4.87-1.61,1.08-3.46,1.62-5.54,1.62-3.92,0-7.11-1.34-9.56-4.01-2.46-2.67-3.69-6.14-3.69-10.41,0-5.85,1.68-10.56,5.03-14.13,3.46-3.68,8.18-5.52,14.16-5.52,2.01,0,3.7,.26,5.07,.78,1.36,.52,2.4,1.3,3.12,2.34,2.32,.06,3.48,1.35,3.48,3.86,0,1.54-.23,3.59-.68,6.17-.5,2.99-.79,5.02-.88,6.11Zm-10.43-14.06c-4.11,0-7.3,1.42-9.55,4.25-2.01,2.55-3.02,5.8-3.02,9.74,0,3.14,.6,5.5,1.79,7.08,1.19,1.58,2.98,2.37,5.36,2.37,2.19,0,4.31-1.23,6.37-3.7,1.86-2.27,2.92-4.53,3.18-6.76,.46-2.34,.94-6.01,1.46-11.01-.87-.67-1.77-1.17-2.7-1.49-.93-.32-1.9-.49-2.89-.49Z"/>
    <path d="M233.25,59.99c-4.89,0-8.86-1.22-11.89-3.67-3.31-2.71-4.97-6.5-4.97-11.37,0-5.63,1.36-10.35,4.09-14.16,2.97-4.16,6.93-6.24,11.89-6.24,3.59,0,6.53,.61,8.8,1.82,2.79,1.49,4.19,3.79,4.19,6.89,0,2.17-1.22,4.14-3.67,5.91-1.08,.78-3.38,1.99-6.89,3.64l-12.41,5.88c1.21,1.8,2.72,3.15,4.53,4.06,1.81,.91,3.91,1.36,6.32,1.36,1.49,0,3.25-.28,5.26-.84,2.55-.71,4.2-1.65,4.94-2.81,.74-1.16,1.53-1.74,2.37-1.74,.76,0,1.43,.29,2.03,.86,.6,.57,.89,1.24,.89,2,0,2.4-1.94,4.47-5.81,6.2-3.31,1.47-6.54,2.21-9.68,2.21Zm-.88-29.59c-2.64,0-4.84,1.02-6.59,3.07-1.75,2.05-3.06,5.13-3.93,9.24l9.97-4.74c3.92-1.9,6.71-3.56,8.38-4.97-1.86-1.73-4.47-2.6-7.83-2.6Z"/>
    <path d="M283.3,39.43c-.61,0-1.93-.14-3.96-.42-.17,3.27-.26,9-.26,17.18,0,.87-.28,1.6-.84,2.19-.56,.59-1.27,.89-2.11,.89s-1.58-.3-2.14-.89c-.56-.6-.84-1.33-.84-2.19v-9.55c0-3.18,.19-7.67,.58-13.45,.43-6.26,.67-10.74,.71-13.45v-4.48c0-2.14,.13-3.7,.39-4.68,.5-1.9,1.56-2.73,3.18-2.47,.69-.22,1.68-.38,2.96-.49,1.28-.11,2.85-.16,4.71-.16,3.96,0,7.68,1.35,11.14,4.06,3.81,2.99,5.72,6.58,5.72,10.78,0,5.37-2.04,9.65-6.11,12.83-3.64,2.86-8.01,4.29-13.12,4.29Zm1.62-25.79c-.95,0-1.8,.02-2.55,.06-.75,.04-1.38,.11-1.9,.19l-.06,5.98-.68,12.93,3.57,.42c3.64,0,6.7-.92,9.19-2.76,2.73-2.01,4.09-4.73,4.09-8.15,0-2.42-1.3-4.51-3.9-6.27-2.4-1.6-4.99-2.4-7.76-2.4Z"/>
    <path d="M321.2,60.41c-3.64,0-6.77-1.34-9.39-4.03-2.92-2.99-4.46-7-4.61-12.05-.13-4.89,1.1-9.2,3.7-12.93,3.03-4.4,7.25-6.59,12.67-6.59,4.33,0,7.61,1.98,9.84,5.94,1.78,3.2,2.63,7.06,2.57,11.56-.07,4.81-1.32,8.91-3.77,12.31-2.77,3.85-6.44,5.78-11.01,5.78Zm1.95-29c-3.18-.02-5.66,1.49-7.44,4.55-1.41,2.45-2.11,5.24-2.11,8.38s.85,5.59,2.57,7.34c1.43,1.45,3.11,2.18,5.03,2.18,2.25,0,4.19-.82,5.81-2.47,1.84-1.82,2.81-4.28,2.92-7.37,.3-8.38-1.96-12.58-6.79-12.6Z"/>
    <path d="M365.73,30.82c-.46,0-.99-.02-1.61-.06-.62-.04-1.15-.06-1.61-.06-.5,0-1.97,.16-4.42,.49l.62,19.19,.03,1.43,.03,1.66c.09,4.74-1.05,7.11-3.41,7.11-.87,0-1.62-.28-2.26-.84-.64-.56-.96-1.27-.96-2.11s.03-2.06,.1-3.7c.06-1.65,.1-2.88,.1-3.7l-.65-18.97c-1.58-.06-3.98-.25-7.21-.55-1.93-.26-2.89-1.33-2.89-3.22,0-.95,.29-1.74,.88-2.37,.58-.63,1.33-.94,2.24-.94l6.82,.55c0-1.1-.05-2.58-.15-4.43-.1-1.85-.15-3.19-.15-4.01,0-.91,.31-1.66,.94-2.26,.63-.6,1.4-.89,2.31-.89,1.95,0,3.08,1.59,3.41,4.77,.06,.8,.1,1.77,.1,2.89l-.06,1.88-.03,2.01c2.68-.35,4.22-.52,4.61-.52,2.25,0,3.72,.11,4.42,.32,1.32,.43,1.98,1.45,1.98,3.05,0,.95-.3,1.74-.89,2.35s-1.36,.93-2.29,.93Z"/>
    <path d="M400.71,60.64c-.41,0-1.16-.48-2.24-1.43-.97-.89-1.7-1.68-2.18-2.37-2.08,1.13-3.91,1.98-5.49,2.55-1.58,.57-2.9,.86-3.96,.86-5.07,0-8.76-1.43-11.08-4.29-2.19-2.68-3.28-6.8-3.28-12.34,0-5.24,1.8-9.72,5.41-13.45,3.61-3.72,7.91-5.59,12.91-5.59,1.88,0,4,.49,6.33,1.46,2.94,1.21,4.42,2.67,4.42,4.38,0,.58-.22,1.1-.65,1.56-.22,.82-.38,2.18-.5,4.06s-.19,4.3-.21,7.24c-.02,2.68,.16,4.81,.55,6.37,.22,.95,.9,2.86,2.05,5.72,.15,.39,.4,.96,.75,1.72l.19,.55c0,.87-.3,1.58-.91,2.14-.61,.56-1.31,.84-2.11,.84Zm-6.75-22.57c0-.93,.06-1.94,.18-3.04,.12-1.09,.3-2.26,.54-3.49-.8-.41-1.49-.71-2.06-.91-.57-.19-1.03-.29-1.38-.29-3.36,0-6.25,1.37-8.69,4.11-2.44,2.74-3.65,5.89-3.65,9.47s.63,6.21,1.88,7.99c1.25,1.78,3.14,2.66,5.65,2.66,2.08,0,3.84-.38,5.29-1.14,.78-.41,1.87-1.23,3.28-2.47-.69-5.74-1.04-10.04-1.04-12.89Z"/>
    <path d="M431.1,30.82c-.46,0-.99-.02-1.61-.06-.62-.04-1.15-.06-1.61-.06-.5,0-1.97,.16-4.42,.49l.62,19.19,.03,1.43,.03,1.66c.09,4.74-1.05,7.11-3.41,7.11-.87,0-1.62-.28-2.26-.84-.64-.56-.96-1.27-.96-2.11s.03-2.06,.1-3.7c.06-1.65,.1-2.88,.1-3.7l-.65-18.97c-1.58-.06-3.98-.25-7.21-.55-1.93-.26-2.89-1.33-2.89-3.22,0-.95,.29-1.74,.88-2.37,.58-.63,1.33-.94,2.24-.94l6.82,.55c0-1.1-.05-2.58-.15-4.43-.1-1.85-.15-3.19-.15-4.01,0-.91,.31-1.66,.94-2.26,.63-.6,1.4-.89,2.31-.89,1.95,0,3.08,1.59,3.41,4.77,.06,.8,.1,1.77,.1,2.89l-.06,1.88-.03,2.01c2.68-.35,4.22-.52,4.61-.52,2.25,0,3.72,.11,4.42,.32,1.32,.43,1.98,1.45,1.98,3.05,0,.95-.3,1.74-.89,2.35s-1.36,.93-2.29,.93Z"/>
    <path d="M452.9,60.41c-3.64,0-6.77-1.34-9.39-4.03-2.92-2.99-4.46-7-4.61-12.05-.13-4.89,1.1-9.2,3.7-12.93,3.03-4.4,7.25-6.59,12.67-6.59,4.33,0,7.61,1.98,9.84,5.94,1.77,3.2,2.63,7.06,2.57,11.56-.07,4.81-1.32,8.91-3.77,12.31-2.77,3.85-6.44,5.78-11.01,5.78Zm1.95-29c-3.18-.02-5.66,1.49-7.44,4.55-1.41,2.45-2.11,5.24-2.11,8.38s.85,5.59,2.57,7.34c1.43,1.45,3.11,2.18,5.03,2.18,2.25,0,4.19-.82,5.81-2.47,1.84-1.82,2.81-4.28,2.92-7.37,.3-8.38-1.96-12.58-6.79-12.6Z"/>
    <path d="M517.1,60.47c-6.11,0-11.28-1.83-15.52-5.49-4.5-3.9-6.75-8.92-6.75-15.07,0-7.49,2.22-14.3,6.66-20.43,4.96-6.8,11.14-10.2,18.54-10.2s12.42,1.6,15.88,4.81c3.62,3.33,5.42,8.6,5.42,15.78s-2.04,14.25-6.11,20.27c-4.68,6.88-10.72,10.33-18.12,10.33Zm2.92-44.53c-5.3,0-9.8,2.64-13.48,7.92-3.4,4.85-5.1,10.2-5.1,16.04,0,4.18,1.55,7.58,4.64,10.2,2.97,2.47,6.64,3.7,11.01,3.7,5.26,0,9.6-2.65,13.02-7.96,3.05-4.74,4.58-10.07,4.58-15.98,0-5.17-1.16-8.81-3.47-10.91-2.21-2.01-5.94-3.02-11.21-3.02Z"/>
    <path d="M587.55,29.42c-1.69,7.06-3.9,15.04-6.62,23.94-.61,1.97-1.61,3.99-3.02,6.07-.76,1.15-1.79,1.71-3.09,1.69-2.36-.04-4.2-2.98-5.52-8.8-.43-1.86-.88-4.4-1.33-7.6l-1.07-7.24-2.66,6.2-4.94,13.41c-.28,.82-.69,1.45-1.23,1.88-.65,1.25-1.69,1.91-3.12,1.95-1.65,.07-3.24-3.16-4.77-9.68-.78-3.36-1.56-7.9-2.34-13.64l-.78-4.87c-.28-1.95-.42-3.58-.42-4.9,0-.91,.32-1.66,.96-2.26,.64-.6,1.41-.89,2.32-.89,1.65,0,2.66,.9,3.05,2.7,.28,1.28,.51,2.86,.68,4.74l.49,4.77,1.92,14.58c2.4-6.67,4.89-14.35,7.47-23.06,.71-2.4,1.96-3.6,3.74-3.6s2.87,1.34,3.47,4.03c.56,2.53,1.27,6.43,2.11,11.69,.87,5.46,1.63,9.71,2.31,12.76l2.37-8.83,4.19-17.7c.32-1.32,1.25-1.98,2.79-1.98,.91,0,1.7,.31,2.37,.93,.67,.62,1.01,1.36,1.01,2.23,0,.11-.11,.61-.33,1.49Z"/>
    <path d="M602.42,32.96l-.49,16.14c0,1.71-.09,4.22-.26,7.53-.22,2.17-1.28,3.25-3.18,3.25-2.12,0-3.18-1.1-3.18-3.31,0-2.62,.12-6.56,.36-11.81,.24-5.25,.36-9.19,.36-11.81,0-3.42,.05-7.33,.16-11.74,.11-4.41,.16-8.32,.16-11.74,0-2.17,1.06-3.25,3.18-3.25s3.21,1.08,3.21,3.25c0,3.42-.05,7.33-.16,11.74-.11,4.41-.16,8.32-.16,11.74Z"/>
    <path d="M634.31,33.48c-1.19,0-2.02-.4-2.5-1.2-.32-.56-.61-1.73-.84-3.51-1.62,.41-4.12,1.17-7.5,2.27-3.49,1.39-5.24,3.1-5.26,5.13,.65,.24,1.29,.41,1.92,.52,4.98,.89,8.68,2.11,11.11,3.67,3.53,2.27,5.29,5.56,5.29,9.87,0,3.53-1.53,6.19-4.58,7.99-2.53,1.47-5.74,2.21-9.61,2.21-2.84,0-5.54-.48-8.12-1.43-3.33-1.21-5-2.9-5-5.07,0-.87,.34-1.62,1.02-2.27,.68-.65,1.46-.97,2.32-.97,.67,0,1.54,.52,2.6,1.56,.52,.5,1.69,.91,3.51,1.23,1.45,.26,2.67,.39,3.67,.39,1.82,0,3.42-.22,4.81-.65,2.01-.63,3.02-1.62,3.02-2.99,0-2.94-2.06-4.94-6.17-5.98l-3.38-.75c-2.88-.63-4.93-1.36-6.14-2.21-1.75-1.21-2.63-3.04-2.63-5.49,0-4.52,2.13-7.75,6.4-9.68,1.3-.58,3.38-1.28,6.24-2.09,2.86-.81,4.9-1.5,6.14-2.06,.89-.39,1.85-.58,2.89-.58,.93,0,1.69,.3,2.29,.91,.6,.61,.89,1.4,.89,2.37,0,.63,.13,1.55,.41,2.76,.27,1.21,.41,2.13,.41,2.76,0,.97-.3,1.76-.89,2.37-.6,.61-1.36,.91-2.29,.91Z"/>
  </g>
  <g>
    <path d="M29.89,79.4h-4.07v12.16h-1.9v-12.16h-4.07v-1.6h10.04v1.6Z"/>
    <path d="M32.91,80.99h1.67l.05,1.95c.62-.75,1.24-1.29,1.85-1.63s1.22-.5,1.84-.5c1.09,0,1.92,.35,2.49,1.06s.83,1.76,.78,3.16h-1.85c.02-.93-.11-1.6-.41-2.02-.29-.42-.72-.63-1.28-.63-.25,0-.49,.04-.74,.13s-.5,.23-.77,.42c-.26,.19-.54,.44-.84,.74s-.61,.67-.95,1.09v6.79h-1.85v-10.57Z"/>
    <path d="M51.12,91.55l-.04-1.42c-.58,.57-1.16,.98-1.75,1.23-.59,.25-1.22,.38-1.87,.38-.6,0-1.12-.08-1.55-.23-.43-.15-.78-.37-1.06-.64-.28-.27-.48-.59-.61-.95-.13-.36-.19-.76-.19-1.19,0-1.06,.39-1.89,1.18-2.49,.79-.6,1.96-.9,3.5-.9h2.19v-.93c0-.62-.2-1.12-.6-1.5-.4-.38-1.01-.56-1.83-.56-.6,0-1.18,.07-1.76,.2-.58,.13-1.18,.32-1.79,.57v-1.65c.23-.08,.49-.17,.77-.25,.28-.08,.58-.15,.9-.22,.32-.06,.65-.11,.99-.15,.34-.04,.69-.06,1.04-.06,.64,0,1.21,.07,1.73,.21s.95,.35,1.3,.64c.35,.29,.63,.65,.82,1.08,.19,.43,.28,.95,.28,1.54v7.28h-1.64Zm-.2-4.81h-2.33c-.46,0-.85,.05-1.18,.14-.33,.09-.6,.22-.81,.39-.21,.17-.37,.37-.47,.61s-.15,.5-.15,.79c0,.2,.03,.4,.09,.58,.06,.19,.17,.35,.31,.5,.14,.14,.32,.26,.55,.34,.22,.08,.5,.13,.82,.13,.42,0,.9-.13,1.45-.38s1.12-.66,1.72-1.22v-1.87Z"/>
    <path d="M64.39,91.16c-.48,.18-.97,.32-1.47,.41s-1.02,.13-1.55,.13c-1.67,0-2.96-.45-3.86-1.36-.9-.9-1.35-2.23-1.35-3.97,0-.83,.13-1.59,.39-2.27,.26-.68,.62-1.26,1.09-1.75s1.03-.86,1.68-1.12c.65-.26,1.37-.39,2.16-.39,.55,0,1.06,.04,1.54,.12,.48,.08,.93,.2,1.37,.38v1.75c-.46-.24-.92-.41-1.39-.52s-.96-.16-1.47-.16c-.47,0-.91,.09-1.33,.27-.42,.18-.78,.44-1.1,.77-.32,.34-.56,.75-.75,1.23-.18,.48-.27,1.03-.27,1.64,0,1.28,.31,2.23,.93,2.87,.62,.64,1.48,.95,2.58,.95,.5,0,.98-.06,1.45-.17,.47-.11,.92-.28,1.35-.5v1.71Z"/>
    <path d="M77.54,91.55h-2.52l-4.93-5.66v5.66h-1.83v-14.87h1.83v9.14l4.75-4.83h2.42l-4.96,4.87,5.23,5.69Z"/>
    <path d="M88.81,85.71c0,.26,0,.48-.01,.65,0,.18-.02,.34-.03,.5h-7.42c0,1.08,.3,1.91,.91,2.49s1.47,.87,2.61,.87c.31,0,.62-.01,.93-.04,.31-.02,.61-.06,.9-.1,.29-.04,.56-.09,.83-.14,.26-.05,.51-.11,.73-.17v1.5c-.5,.14-1.06,.25-1.69,.34-.63,.09-1.28,.13-1.95,.13-.9,0-1.68-.12-2.34-.37-.65-.25-1.19-.6-1.61-1.07s-.73-1.04-.93-1.72c-.2-.68-.3-1.44-.3-2.3,0-.74,.11-1.45,.32-2.11,.21-.66,.53-1.25,.94-1.75,.41-.5,.91-.9,1.51-1.2,.6-.29,1.27-.44,2.03-.44s1.39,.12,1.96,.35c.57,.23,1.05,.56,1.44,.98s.68,.94,.88,1.55c.2,.61,.3,1.29,.3,2.04Zm-1.91-.26c.02-.47-.02-.9-.14-1.29s-.29-.72-.52-1c-.24-.28-.53-.5-.88-.66-.35-.16-.76-.24-1.22-.24-.4,0-.77,.08-1.09,.23-.33,.15-.61,.37-.85,.65-.24,.28-.43,.62-.58,1.01-.15,.39-.24,.82-.27,1.29h5.56Z"/>
    <path d="M92.17,80.99h1.67l.05,1.95c.62-.75,1.24-1.29,1.85-1.63s1.22-.5,1.84-.5c1.09,0,1.92,.35,2.49,1.06s.83,1.76,.78,3.16h-1.85c.02-.93-.11-1.6-.41-2.02-.29-.42-.72-.63-1.28-.63-.25,0-.49,.04-.74,.13s-.5,.23-.77,.42c-.26,.19-.54,.44-.84,.74s-.61,.67-.95,1.09v6.79h-1.85v-10.57Z"/>
    <path d="M110.98,86.68h-6.29v-1.73h6.29v1.73Z"/>
    <path d="M124.82,78.39c-.96-.2-1.79-.3-2.48-.3-1.65,0-2.47,.86-2.47,2.59v1.85h4.63v1.53h-4.63v7.5h-1.86v-7.5h-3.4v-1.53h3.4v-1.75c0-2.81,1.47-4.22,4.4-4.22,.73,0,1.54,.08,2.42,.25v1.58Z"/>
    <path d="M127.73,80.99h1.67l.05,1.95c.62-.75,1.24-1.29,1.85-1.63s1.22-.5,1.84-.5c1.09,0,1.92,.35,2.49,1.06s.83,1.76,.78,3.16h-1.85c.02-.93-.11-1.6-.41-2.02-.29-.42-.72-.63-1.28-.63-.25,0-.49,.04-.74,.13s-.5,.23-.77,.42c-.26,.19-.54,.44-.84,.74s-.61,.67-.95,1.09v6.79h-1.85v-10.57Z"/>
    <path d="M148.07,85.71c0,.26,0,.48-.01,.65,0,.18-.02,.34-.03,.5h-7.42c0,1.08,.3,1.91,.91,2.49s1.47,.87,2.61,.87c.31,0,.62-.01,.93-.04,.31-.02,.61-.06,.9-.1,.29-.04,.56-.09,.83-.14,.26-.05,.51-.11,.73-.17v1.5c-.5,.14-1.06,.25-1.69,.34-.63,.09-1.28,.13-1.95,.13-.9,0-1.68-.12-2.34-.37-.65-.25-1.19-.6-1.61-1.07s-.73-1.04-.93-1.72c-.2-.68-.3-1.44-.3-2.3,0-.74,.11-1.45,.32-2.11,.21-.66,.53-1.25,.94-1.75,.41-.5,.91-.9,1.51-1.2,.6-.29,1.27-.44,2.03-.44s1.39,.12,1.96,.35c.57,.23,1.05,.56,1.44,.98s.68,.94,.88,1.55c.2,.61,.3,1.29,.3,2.04Zm-1.91-.26c.02-.47-.02-.9-.14-1.29s-.29-.72-.52-1c-.24-.28-.53-.5-.88-.66-.35-.16-.76-.24-1.22-.24-.4,0-.77,.08-1.09,.23-.33,.15-.61,.37-.85,.65-.24,.28-.43,.62-.58,1.01-.15,.39-.24,.82-.27,1.29h5.56Z"/>
    <path d="M159.92,85.71c0,.26,0,.48-.01,.65,0,.18-.02,.34-.03,.5h-7.42c0,1.08,.3,1.91,.91,2.49s1.47,.87,2.61,.87c.31,0,.62-.01,.93-.04,.31-.02,.61-.06,.9-.1,.29-.04,.56-.09,.83-.14,.26-.05,.51-.11,.73-.17v1.5c-.5,.14-1.06,.25-1.69,.34-.63,.09-1.28,.13-1.95,.13-.9,0-1.68-.12-2.34-.37-.65-.25-1.19-.6-1.61-1.07s-.73-1.04-.93-1.72c-.2-.68-.3-1.44-.3-2.3,0-.74,.11-1.45,.32-2.11,.21-.66,.53-1.25,.94-1.75,.41-.5,.91-.9,1.51-1.2,.6-.29,1.27-.44,2.03-.44s1.39,.12,1.96,.35c.57,.23,1.05,.56,1.44,.98s.68,.94,.88,1.55c.2,.61,.3,1.29,.3,2.04Zm-1.91-.26c.02-.47-.02-.9-.14-1.29s-.29-.72-.52-1c-.24-.28-.53-.5-.88-.66-.35-.16-.76-.24-1.22-.24-.4,0-.77,.08-1.09,.23-.33,.15-.61,.37-.85,.65-.24,.28-.43,.62-.58,1.01-.15,.39-.24,.82-.27,1.29h5.56Z"/>
    <path d="M184.35,91.55h-1.83l-.27-8.58-.12-3.29-.64,1.92-2.03,5.47h-1.29l-1.94-5.26-.64-2.13-.04,3.44-.24,8.43h-1.77l.67-13.76h2.22l1.85,5.18,.6,1.75,.58-1.75,1.95-5.18h2.28l.66,13.76Z"/>
    <path d="M195.48,85.71c0,.26,0,.48-.01,.65,0,.18-.02,.34-.03,.5h-7.42c0,1.08,.3,1.91,.91,2.49s1.47,.87,2.61,.87c.31,0,.62-.01,.93-.04,.31-.02,.61-.06,.9-.1,.29-.04,.56-.09,.83-.14,.26-.05,.51-.11,.73-.17v1.5c-.5,.14-1.06,.25-1.69,.34-.63,.09-1.28,.13-1.95,.13-.9,0-1.68-.12-2.34-.37-.65-.25-1.19-.6-1.61-1.07s-.73-1.04-.93-1.72c-.2-.68-.3-1.44-.3-2.3,0-.74,.11-1.45,.32-2.11,.21-.66,.53-1.25,.94-1.75,.41-.5,.91-.9,1.51-1.2,.6-.29,1.27-.44,2.03-.44s1.39,.12,1.96,.35c.57,.23,1.05,.56,1.44,.98s.68,.94,.88,1.55c.2,.61,.3,1.29,.3,2.04Zm-1.91-.26c.02-.47-.02-.9-.14-1.29s-.29-.72-.52-1c-.24-.28-.53-.5-.88-.66-.35-.16-.76-.24-1.22-.24-.4,0-.77,.08-1.09,.23-.33,.15-.61,.37-.85,.65-.24,.28-.43,.62-.58,1.01-.15,.39-.24,.82-.27,1.29h5.56Z"/>
    <path d="M206.92,91.41c-.41,.11-.84,.18-1.28,.23-.44,.04-.89,.07-1.35,.07-1.33,0-2.32-.3-2.97-.9-.65-.6-.98-1.52-.98-2.76v-5.52h-2.96v-1.54h2.96v-2.91l1.83-.47v3.38h4.75v1.54h-4.75v5.37c0,.76,.2,1.33,.61,1.7,.4,.38,1,.56,1.78,.56,.34,0,.71-.03,1.1-.08s.82-.14,1.25-.25v1.58Z"/>
    <path d="M217.05,91.55l-.04-1.42c-.58,.57-1.16,.98-1.75,1.23-.59,.25-1.22,.38-1.87,.38-.6,0-1.12-.08-1.55-.23-.43-.15-.78-.37-1.06-.64-.28-.27-.48-.59-.61-.95-.13-.36-.19-.76-.19-1.19,0-1.06,.39-1.89,1.18-2.49,.79-.6,1.96-.9,3.5-.9h2.19v-.93c0-.62-.2-1.12-.6-1.5-.4-.38-1.01-.56-1.83-.56-.6,0-1.18,.07-1.76,.2-.58,.13-1.18,.32-1.79,.57v-1.65c.23-.08,.49-.17,.77-.25,.28-.08,.58-.15,.9-.22,.32-.06,.65-.11,.99-.15,.34-.04,.69-.06,1.04-.06,.64,0,1.21,.07,1.73,.21s.95,.35,1.3,.64c.35,.29,.63,.65,.82,1.08,.19,.43,.28,.95,.28,1.54v7.28h-1.64Zm-.2-4.81h-2.33c-.46,0-.85,.05-1.18,.14-.33,.09-.6,.22-.81,.39-.21,.17-.37,.37-.47,.61s-.15,.5-.15,.79c0,.2,.03,.4,.09,.58,.06,.19,.17,.35,.31,.5,.14,.14,.32,.26,.55,.34,.22,.08,.5,.13,.82,.13,.42,0,.9-.13,1.45-.38s1.12-.66,1.72-1.22v-1.87Z"/>
    <path d="M229.5,86.68h-6.29v-1.73h6.29v1.73Z"/>
    <path d="M242.77,87.83c0,.65-.13,1.22-.4,1.72s-.64,.9-1.12,1.23c-.48,.33-1.05,.57-1.72,.73-.67,.16-1.41,.24-2.22,.24-.37,0-.73-.01-1.09-.04-.36-.03-.71-.06-1.04-.11-.33-.04-.65-.09-.94-.15-.29-.06-.56-.12-.8-.18v-1.81c.53,.2,1.12,.35,1.77,.46s1.4,.17,2.24,.17c.6,0,1.12-.05,1.54-.14,.42-.09,.77-.23,1.04-.42,.27-.19,.47-.41,.59-.68,.12-.27,.18-.57,.18-.92,0-.37-.1-.69-.31-.95-.21-.26-.48-.5-.82-.71s-.72-.4-1.15-.57c-.43-.17-.87-.35-1.32-.53-.45-.18-.89-.38-1.32-.59-.43-.21-.82-.47-1.15-.76-.34-.29-.61-.63-.82-1.03-.21-.39-.31-.86-.31-1.4,0-.47,.1-.93,.29-1.39s.5-.86,.92-1.22,.95-.64,1.59-.86c.65-.22,1.42-.33,2.32-.33,.23,0,.48,0,.75,.03s.54,.05,.82,.09c.28,.04,.55,.08,.82,.13,.27,.05,.52,.1,.75,.16v1.68c-.54-.15-1.08-.27-1.62-.35-.54-.08-1.06-.12-1.57-.12-1.07,0-1.86,.18-2.37,.54-.5,.36-.76,.84-.76,1.44,0,.37,.1,.69,.31,.96s.48,.5,.82,.72c.34,.21,.72,.4,1.15,.57s.87,.35,1.32,.53c.45,.18,.89,.38,1.32,.6s.82,.48,1.15,.77c.34,.3,.61,.65,.82,1.05,.21,.4,.31,.87,.31,1.42Z"/>
    <path d="M254.74,85.71c0,.26,0,.48-.01,.65,0,.18-.02,.34-.03,.5h-7.42c0,1.08,.3,1.91,.91,2.49s1.47,.87,2.61,.87c.31,0,.62-.01,.93-.04,.31-.02,.61-.06,.9-.1,.29-.04,.56-.09,.83-.14,.26-.05,.51-.11,.73-.17v1.5c-.5,.14-1.06,.25-1.69,.34-.63,.09-1.28,.13-1.95,.13-.9,0-1.68-.12-2.34-.37-.65-.25-1.19-.6-1.61-1.07s-.73-1.04-.93-1.72c-.2-.68-.3-1.44-.3-2.3,0-.74,.11-1.45,.32-2.11,.21-.66,.53-1.25,.94-1.75,.41-.5,.91-.9,1.51-1.2,.6-.29,1.27-.44,2.03-.44s1.39,.12,1.96,.35c.57,.23,1.05,.56,1.44,.98s.68,.94,.88,1.55c.2,.61,.3,1.29,.3,2.04Zm-1.91-.26c.02-.47-.02-.9-.14-1.29s-.29-.72-.52-1c-.24-.28-.53-.5-.88-.66-.35-.16-.76-.24-1.22-.24-.4,0-.77,.08-1.09,.23-.33,.15-.61,.37-.85,.65-.24,.28-.43,.62-.58,1.01-.15,.39-.24,.82-.27,1.29h5.56Z"/>
    <path d="M264.46,91.55l-.04-1.42c-.58,.57-1.16,.98-1.75,1.23-.59,.25-1.22,.38-1.87,.38-.6,0-1.12-.08-1.55-.23-.43-.15-.78-.37-1.06-.64-.28-.27-.48-.59-.61-.95-.13-.36-.19-.76-.19-1.19,0-1.06,.39-1.89,1.18-2.49,.79-.6,1.96-.9,3.5-.9h2.19v-.93c0-.62-.2-1.12-.6-1.5-.4-.38-1.01-.56-1.83-.56-.6,0-1.18,.07-1.76,.2-.58,.13-1.18,.32-1.79,.57v-1.65c.23-.08,.49-.17,.77-.25,.28-.08,.58-.15,.9-.22,.32-.06,.65-.11,.99-.15,.34-.04,.69-.06,1.04-.06,.64,0,1.21,.07,1.73,.21s.95,.35,1.3,.64c.35,.29,.63,.65,.82,1.08,.19,.43,.28,.95,.28,1.54v7.28h-1.64Zm-.2-4.81h-2.33c-.46,0-.85,.05-1.18,.14-.33,.09-.6,.22-.81,.39-.21,.17-.37,.37-.47,.61s-.15,.5-.15,.79c0,.2,.03,.4,.09,.58,.06,.19,.17,.35,.31,.5,.14,.14,.32,.26,.55,.34,.22,.08,.5,.13,.82,.13,.42,0,.9-.13,1.45-.38s1.12-.66,1.72-1.22v-1.87Z"/>
    <path d="M269.95,80.99h1.67l.05,1.95c.62-.75,1.24-1.29,1.85-1.63s1.22-.5,1.84-.5c1.09,0,1.92,.35,2.49,1.06s.83,1.76,.78,3.16h-1.85c.02-.93-.11-1.6-.41-2.02-.29-.42-.72-.63-1.28-.63-.25,0-.49,.04-.74,.13s-.5,.23-.77,.42c-.26,.19-.54,.44-.84,.74s-.61,.67-.95,1.09v6.79h-1.85v-10.57Z"/>
    <path d="M289.58,91.16c-.48,.18-.97,.32-1.47,.41s-1.02,.13-1.55,.13c-1.67,0-2.96-.45-3.86-1.36-.9-.9-1.35-2.23-1.35-3.97,0-.83,.13-1.59,.39-2.27,.26-.68,.62-1.26,1.09-1.75s1.03-.86,1.68-1.12c.65-.26,1.37-.39,2.16-.39,.55,0,1.06,.04,1.54,.12,.48,.08,.93,.2,1.37,.38v1.75c-.46-.24-.92-.41-1.39-.52s-.96-.16-1.47-.16c-.47,0-.91,.09-1.33,.27-.42,.18-.78,.44-1.1,.77-.32,.34-.56,.75-.75,1.23-.18,.48-.27,1.03-.27,1.64,0,1.28,.31,2.23,.93,2.87,.62,.64,1.48,.95,2.58,.95,.5,0,.98-.06,1.45-.17,.47-.11,.92-.28,1.35-.5v1.71Z"/>
    <path d="M301.72,91.55h-1.83v-6.75c0-.81-.15-1.42-.46-1.83s-.74-.61-1.31-.61c-.25,0-.48,.03-.69,.1-.21,.07-.44,.18-.67,.35-.23,.17-.48,.39-.76,.67-.27,.28-.59,.63-.95,1.05v7.01h-1.83v-14.87h1.83v4.31l-.06,1.66c.29-.34,.57-.63,.85-.87,.28-.23,.55-.43,.83-.57,.28-.15,.56-.25,.85-.32,.29-.06,.59-.09,.9-.09,1.05,0,1.87,.32,2.44,.96,.58,.64,.86,1.61,.86,2.9v6.89Z"/>
    <path d="M325.18,91.55h-7.82v-13.76h7.82v1.58h-5.95v4.26h5.71v1.58h-5.71v4.74h5.95v1.6Z"/>
    <path d="M328.78,80.99h1.63l.07,1.71c.31-.37,.61-.67,.89-.91,.29-.24,.57-.44,.85-.58,.28-.15,.56-.25,.85-.31s.59-.09,.89-.09c1.09,0,1.91,.32,2.47,.96,.56,.64,.84,1.61,.84,2.9v6.89h-1.83v-6.75c0-.83-.15-1.44-.46-1.84s-.77-.59-1.38-.59c-.22,0-.44,.03-.66,.1-.21,.07-.44,.18-.67,.35-.23,.17-.48,.39-.75,.67-.27,.28-.57,.63-.91,1.05v7.01h-1.83v-10.57Z"/>
    <path d="M348.24,82.48c.2,.25,.35,.53,.46,.86,.11,.33,.16,.68,.16,1.06,0,.55-.1,1.05-.3,1.5-.2,.45-.48,.84-.85,1.16-.36,.32-.8,.57-1.31,.75-.51,.18-1.07,.27-1.68,.27-.44,0-.86-.05-1.24-.14-.39-.09-.69-.21-.92-.35-.13,.2-.25,.38-.34,.56-.09,.18-.14,.37-.14,.59,0,.27,.13,.49,.38,.66,.26,.18,.59,.27,1.02,.28l2.78,.11c.53,.01,1.01,.08,1.46,.2,.45,.12,.83,.29,1.15,.52s.57,.5,.75,.83c.18,.33,.27,.71,.27,1.15,0,.47-.1,.92-.3,1.34-.2,.42-.52,.79-.94,1.11s-.96,.57-1.62,.76-1.43,.28-2.33,.28-1.58-.07-2.18-.21c-.6-.14-1.09-.33-1.48-.57s-.67-.53-.84-.86c-.18-.33-.26-.7-.26-1.1,0-.51,.12-.96,.36-1.35,.24-.39,.61-.76,1.1-1.12-.18-.08-.34-.19-.47-.32-.13-.13-.24-.26-.33-.42-.08-.15-.15-.31-.19-.48-.04-.17-.06-.33-.06-.5,0-.46,.11-.87,.32-1.25s.47-.74,.76-1.07c-.13-.16-.25-.32-.35-.47-.1-.15-.19-.32-.26-.5-.07-.18-.13-.37-.17-.58-.04-.21-.06-.44-.06-.71,0-.55,.1-1.05,.3-1.5,.2-.45,.48-.84,.84-1.16,.36-.32,.8-.57,1.3-.75,.51-.18,1.07-.27,1.69-.27,.26,0,.51,.02,.75,.05,.24,.04,.45,.08,.63,.14h3.83v1.49h-1.7Zm-6.36,10.6c0,.5,.26,.86,.78,1.09,.52,.23,1.24,.34,2.17,.34,.58,0,1.07-.05,1.47-.16s.72-.24,.96-.42c.24-.17,.42-.37,.52-.59,.11-.22,.16-.45,.16-.68,0-.43-.18-.74-.53-.95-.35-.2-.89-.32-1.61-.36l-2.76-.09c-.23,.15-.42,.31-.57,.45-.15,.15-.27,.3-.35,.45-.08,.15-.14,.3-.18,.45-.04,.15-.05,.3-.05,.46Zm.56-8.64c0,.34,.06,.65,.17,.93,.11,.28,.27,.52,.47,.72,.2,.2,.44,.35,.72,.46,.28,.11,.58,.16,.92,.16,.37,0,.69-.06,.97-.18,.28-.12,.52-.29,.72-.5,.19-.21,.34-.45,.44-.73s.15-.56,.15-.85c0-.34-.06-.65-.17-.93-.11-.28-.27-.52-.47-.72-.2-.2-.44-.35-.72-.46-.28-.11-.58-.16-.92-.16-.36,0-.69,.06-.97,.19-.28,.13-.52,.29-.72,.5-.19,.21-.34,.45-.44,.72-.1,.27-.15,.56-.15,.85Z"/>
    <path d="M356.08,82.5h-3.13v-1.52h4.98v9.04h3.15v1.53h-8.47v-1.53h3.47v-7.53Zm.64-5.95c.2,0,.39,.04,.57,.11,.18,.07,.33,.18,.46,.31,.13,.13,.23,.29,.31,.46,.07,.17,.11,.36,.11,.56s-.04,.38-.11,.56c-.07,.17-.18,.33-.31,.46-.13,.13-.28,.24-.46,.31-.17,.07-.36,.11-.57,.11s-.39-.04-.57-.11c-.18-.07-.33-.18-.46-.31-.13-.13-.23-.29-.3-.46-.07-.18-.11-.36-.11-.56s.04-.39,.11-.56c.07-.17,.17-.32,.3-.46,.13-.13,.28-.24,.46-.31s.37-.11,.57-.11Z"/>
    <path d="M364.33,80.99h1.63l.07,1.71c.31-.37,.61-.67,.89-.91,.29-.24,.57-.44,.85-.58,.28-.15,.56-.25,.85-.31s.59-.09,.89-.09c1.09,0,1.91,.32,2.47,.96,.56,.64,.84,1.61,.84,2.9v6.89h-1.83v-6.75c0-.83-.15-1.44-.46-1.84s-.77-.59-1.38-.59c-.22,0-.44,.03-.66,.1-.21,.07-.44,.18-.67,.35-.23,.17-.48,.39-.75,.67-.27,.28-.57,.63-.91,1.05v7.01h-1.83v-10.57Z"/>
    <path d="M385.11,85.71c0,.26,0,.48-.01,.65,0,.18-.02,.34-.03,.5h-7.42c0,1.08,.3,1.91,.91,2.49s1.47,.87,2.61,.87c.31,0,.62-.01,.93-.04,.31-.02,.61-.06,.89-.1,.29-.04,.56-.09,.83-.14,.26-.05,.51-.11,.73-.17v1.5c-.5,.14-1.06,.25-1.69,.34-.63,.09-1.28,.13-1.95,.13-.91,0-1.68-.12-2.34-.37-.65-.25-1.19-.6-1.6-1.07-.42-.47-.73-1.04-.93-1.72s-.3-1.44-.3-2.3c0-.74,.11-1.45,.32-2.11s.53-1.25,.94-1.75c.41-.5,.91-.9,1.51-1.2,.6-.29,1.27-.44,2.03-.44s1.39,.12,1.96,.35,1.05,.56,1.44,.98,.68,.94,.88,1.55c.2,.61,.3,1.29,.3,2.04Zm-1.91-.26c.02-.47-.03-.9-.14-1.29-.11-.39-.29-.72-.52-1s-.53-.5-.88-.66c-.35-.16-.76-.24-1.22-.24-.4,0-.77,.08-1.09,.23-.33,.15-.61,.37-.85,.65-.24,.28-.43,.62-.58,1.01-.15,.39-.24,.82-.27,1.29h5.56Z"/>
    <path d="M408.9,82.01c0,.56-.11,1.12-.32,1.67-.21,.55-.54,1.04-.98,1.48-.44,.43-1.01,.79-1.69,1.06-.69,.27-1.51,.41-2.46,.41h-1.71v4.94h-1.87v-13.76h3.87c.68,0,1.33,.08,1.96,.23,.62,.15,1.17,.4,1.65,.73,.47,.34,.85,.77,1.13,1.3,.28,.53,.42,1.18,.42,1.95Zm-1.95,.08c0-.88-.29-1.56-.87-2.03-.58-.47-1.39-.71-2.43-.71h-1.92v5.66h1.75c1.11,0,1.96-.24,2.56-.73,.6-.48,.9-1.22,.9-2.2Z"/>
    <path d="M420.94,86.19c0,.82-.12,1.57-.35,2.26s-.56,1.27-1,1.76c-.43,.49-.96,.87-1.59,1.14-.62,.27-1.33,.41-2.13,.41s-1.44-.12-2.04-.35c-.6-.24-1.11-.58-1.53-1.04-.42-.46-.74-1.02-.96-1.69s-.33-1.45-.33-2.33c0-.82,.12-1.57,.35-2.25,.23-.68,.57-1.26,1-1.75,.44-.49,.96-.87,1.59-1.14,.62-.27,1.33-.4,2.13-.4s1.44,.12,2.04,.35c.6,.23,1.11,.58,1.53,1.03,.42,.45,.74,1.02,.96,1.69,.22,.67,.33,1.45,.33,2.32Zm-1.87,.08c0-.65-.07-1.22-.22-1.71-.14-.49-.35-.89-.62-1.22-.27-.33-.59-.57-.97-.74-.38-.17-.81-.25-1.28-.25-.55,0-1.02,.11-1.41,.32-.39,.21-.71,.5-.96,.86-.25,.36-.43,.77-.55,1.25s-.17,.97-.17,1.49c0,.65,.07,1.22,.22,1.72s.35,.9,.62,1.23c.27,.33,.59,.57,.97,.74,.38,.17,.81,.25,1.28,.25,.55,0,1.02-.11,1.41-.32s.71-.5,.96-.86c.25-.36,.43-.77,.55-1.25,.12-.47,.17-.97,.17-1.5Z"/>
    <path d="M433.38,80.99l-1.54,10.57h-2.22l-1.53-4.42-.31-1.07-.35,1.14-1.46,4.36h-2.16l-1.53-10.57h1.79l.88,7.18,.19,1.6,.45-1.4,1.54-4.75h1.32l1.65,4.68,.47,1.4,.16-1.48,.82-7.23h1.81Z"/>
    <path d="M444.37,85.71c0,.26,0,.48-.01,.65,0,.18-.02,.34-.03,.5h-7.42c0,1.08,.3,1.91,.91,2.49s1.47,.87,2.61,.87c.31,0,.62-.01,.93-.04,.31-.02,.61-.06,.89-.1,.29-.04,.56-.09,.83-.14,.26-.05,.51-.11,.73-.17v1.5c-.5,.14-1.06,.25-1.69,.34-.63,.09-1.28,.13-1.95,.13-.91,0-1.68-.12-2.34-.37-.65-.25-1.19-.6-1.6-1.07-.42-.47-.73-1.04-.93-1.72s-.3-1.44-.3-2.3c0-.74,.11-1.45,.32-2.11s.53-1.25,.94-1.75c.41-.5,.91-.9,1.51-1.2,.6-.29,1.27-.44,2.03-.44s1.39,.12,1.96,.35,1.05,.56,1.44,.98,.68,.94,.88,1.55c.2,.61,.3,1.29,.3,2.04Zm-1.91-.26c.02-.47-.03-.9-.14-1.29-.11-.39-.29-.72-.52-1s-.53-.5-.88-.66c-.35-.16-.76-.24-1.22-.24-.4,0-.77,.08-1.09,.23-.33,.15-.61,.37-.85,.65-.24,.28-.43,.62-.58,1.01-.15,.39-.24,.82-.27,1.29h5.56Z"/>
    <path d="M447.73,80.99h1.67l.05,1.95c.62-.75,1.24-1.29,1.85-1.63,.61-.34,1.22-.5,1.84-.5,1.09,0,1.92,.35,2.49,1.06,.56,.71,.83,1.76,.78,3.16h-1.85c.02-.93-.11-1.6-.41-2.02-.29-.42-.72-.63-1.28-.63-.25,0-.49,.04-.74,.13s-.5,.23-.77,.42c-.26,.19-.54,.44-.84,.74-.29,.3-.61,.67-.95,1.09v6.79h-1.85v-10.57Z"/>
    <path d="M468.08,85.71c0,.26,0,.48-.01,.65,0,.18-.02,.34-.03,.5h-7.42c0,1.08,.3,1.91,.91,2.49s1.47,.87,2.61,.87c.31,0,.62-.01,.93-.04,.31-.02,.61-.06,.89-.1,.29-.04,.56-.09,.83-.14,.26-.05,.51-.11,.73-.17v1.5c-.5,.14-1.06,.25-1.69,.34-.63,.09-1.28,.13-1.95,.13-.91,0-1.68-.12-2.34-.37-.65-.25-1.19-.6-1.6-1.07-.42-.47-.73-1.04-.93-1.72s-.3-1.44-.3-2.3c0-.74,.11-1.45,.32-2.11s.53-1.25,.94-1.75c.41-.5,.91-.9,1.51-1.2,.6-.29,1.27-.44,2.03-.44s1.39,.12,1.96,.35,1.05,.56,1.44,.98,.68,.94,.88,1.55c.2,.61,.3,1.29,.3,2.04Zm-1.91-.26c.02-.47-.03-.9-.14-1.29-.11-.39-.29-.72-.52-1s-.53-.5-.88-.66c-.35-.16-.76-.24-1.22-.24-.4,0-.77,.08-1.09,.23-.33,.15-.61,.37-.85,.65-.24,.28-.43,.62-.58,1.01-.15,.39-.24,.82-.27,1.29h5.56Z"/>
    <path d="M470.47,86.49c0-.9,.12-1.7,.37-2.39s.59-1.29,1.05-1.77c.45-.48,1-.85,1.63-1.09s1.34-.37,2.12-.37c.34,0,.67,.02,1,.06,.33,.04,.65,.11,.96,.2v-4.44h1.84v14.87h-1.64l-.06-2c-.51,.74-1.07,1.29-1.66,1.65-.6,.36-1.24,.54-1.94,.54-.6,0-1.14-.13-1.59-.38-.46-.25-.84-.61-1.15-1.07s-.54-1.01-.69-1.66c-.15-.65-.23-1.36-.23-2.15Zm1.87-.12c0,1.28,.19,2.23,.56,2.86,.38,.63,.91,.94,1.59,.94,.46,0,.95-.21,1.47-.62,.52-.41,1.06-1.03,1.63-1.84v-4.91c-.3-.14-.64-.25-1-.32-.37-.07-.73-.11-1.08-.11-1,0-1.77,.32-2.33,.97-.56,.65-.84,1.66-.84,3.03Z"/>
    <path d="M503.74,86.08c0,.88-.12,1.66-.36,2.35-.24,.69-.59,1.28-1.03,1.76s-.99,.85-1.63,1.11-1.36,.38-2.16,.38c-.62,0-1.26-.06-1.92-.18-.65-.12-1.3-.31-1.94-.57v-14.25h1.83v4.09l-.08,1.96c.53-.71,1.09-1.21,1.69-1.5,.6-.29,1.24-.44,1.93-.44,.6,0,1.13,.13,1.59,.38,.46,.25,.84,.61,1.15,1.07,.31,.46,.54,1.01,.69,1.66,.15,.65,.23,1.37,.23,2.17Zm-1.87,.08c0-.55-.04-1.06-.12-1.53-.08-.46-.21-.86-.38-1.19-.17-.33-.4-.59-.67-.77-.27-.19-.6-.28-.98-.28-.23,0-.47,.04-.71,.11s-.49,.2-.74,.37-.53,.4-.81,.68-.59,.64-.91,1.06v5.13c.36,.14,.72,.25,1.09,.33,.37,.08,.73,.12,1.06,.12,.42,0,.82-.07,1.21-.2,.38-.13,.72-.36,1.01-.67,.29-.31,.52-.73,.7-1.24,.17-.52,.26-1.16,.26-1.92Z"/>
    <path d="M515.96,80.99l-3.6,9.45c-.37,.96-.76,1.79-1.15,2.48-.4,.7-.83,1.26-1.3,1.71-.47,.45-.99,.77-1.55,.98-.56,.21-1.19,.32-1.88,.32-.18,0-.35,0-.49-.01s-.31-.02-.48-.03v-1.66c.15,.02,.32,.04,.5,.06s.38,.03,.58,.03c.34,0,.65-.05,.94-.15s.57-.26,.83-.48c.26-.22,.51-.51,.75-.86s.47-.78,.69-1.27l-4.22-10.57h2.08l2.67,6.99,.54,1.64,.61-1.68,2.47-6.95h2.01Z"/>
  </g>
</svg>